<svg preserveAspectRatio="none" width="100%" height="100%" overflow="visible" style="display: block;" viewBox="0 0 19 11" fill="none" xmlns="http://www.w3.org/2000/svg">
<path id="reception" d="M2.2002 6.0498C2.80762 6.04991 3.2998 6.54294 3.2998 7.15039V9.90039C3.29959 10.5077 2.80749 10.9999 2.2002 11H1.09961C0.492406 10.9998 0.000210959 10.5076 0 9.90039V7.15039C0 6.54301 0.492276 6.05002 1.09961 6.0498H2.2002ZM7.25 4.40039C7.80224 4.40044 8.25 4.84814 8.25 5.40039V10C8.25 10.5523 7.80224 11 7.25 11H5.9502C5.39791 11 4.9502 10.5523 4.9502 10V5.40039C4.9502 4.84811 5.39791 4.40039 5.9502 4.40039H7.25ZM12.2002 2.2002C12.7524 2.20028 13.2002 2.64796 13.2002 3.2002V10C13.2001 10.5522 12.7524 10.9999 12.2002 11H10.9004C10.3481 11 9.90044 10.5522 9.90039 10V3.2002C9.90039 2.64791 10.3481 2.2002 10.9004 2.2002H12.2002ZM17.1504 0C17.7025 0.000234556 18.1504 0.44786 18.1504 1V10C18.1504 10.5521 17.7025 10.9998 17.1504 11H15.8496C15.2975 10.9998 14.8496 10.5522 14.8496 10V1C14.8496 0.447831 15.2975 0.000187106 15.8496 0H17.1504Z" fill="var(--fill-0, black)"/>
</svg>
