<svg preserveAspectRatio="none" width="100%" height="100%" overflow="visible" style="display: block;" viewBox="0 0 11 10" fill="none" xmlns="http://www.w3.org/2000/svg">
<path id="alarm" d="M5.325 9.825C4.7 9.825 4.11458 9.70625 3.56875 9.46875C3.02292 9.23125 2.54792 8.91042 2.14375 8.50625C1.73958 8.10208 1.41875 7.62708 1.18125 7.08125C0.94375 6.53542 0.825 5.95 0.825 5.325C0.825 4.7 0.94375 4.11458 1.18125 3.56875C1.41875 3.02292 1.73958 2.54792 2.14375 2.14375C2.54792 1.73958 3.02292 1.41875 3.56875 1.18125C4.11458 0.94375 4.7 0.825 5.325 0.825C5.95 0.825 6.53542 0.94375 7.08125 1.18125C7.62708 1.41875 8.10208 1.73958 8.50625 2.14375C8.91042 2.54792 9.23125 3.02292 9.46875 3.56875C9.70625 4.11458 9.825 4.7 9.825 5.325C9.825 5.95 9.70625 6.53542 9.46875 7.08125C9.23125 7.62708 8.91042 8.10208 8.50625 8.50625C8.10208 8.91042 7.62708 9.23125 7.08125 9.46875C6.53542 9.70625 5.95 9.825 5.325 9.825ZM6.725 7.425L7.425 6.725L5.825 5.125V2.825H4.825V5.525L6.725 7.425ZM2.125 0L2.825 0.7L0.7 2.825L0 2.125L2.125 0ZM8.525 0L10.65 2.125L9.95 2.825L7.825 0.7L8.525 0ZM5.325 8.825C6.3 8.825 7.12708 8.48542 7.80625 7.80625C8.48542 7.12708 8.825 6.3 8.825 5.325C8.825 4.35 8.48542 3.52292 7.80625 2.84375C7.12708 2.16458 6.3 1.825 5.325 1.825C4.35 1.825 3.52292 2.16458 2.84375 2.84375C2.16458 3.52292 1.825 4.35 1.825 5.325C1.825 6.3 2.16458 7.12708 2.84375 7.80625C3.52292 8.48542 4.35 8.825 5.325 8.825Z" fill="var(--fill-0, #0159B5)"/>
</svg>
