<svg width="16" height="16" viewBox="0 0 16 16" fill="none" xmlns="http://www.w3.org/2000/svg">
  <!-- Heart in the middle -->
  <path d="M8 11C8 11 4 8.5 4 6C4 4.8 4.8 4 6 4C6.8 4 7.5 4.5 8 5C8.5 4.5 9.2 4 10 4C11.2 4 12 4.8 12 6C12 8.5 8 11 8 11Z" fill="currentColor"/>

  <!-- Left hand -->
  <path d="M2 8C2 8 1 9 1 10.5C1 12 2 13 3 13.5C4 14 5 14 6 13.5" stroke="currentColor" stroke-width="1.2" stroke-linecap="round" fill="none"/>

  <!-- Right hand -->
  <path d="M14 8C14 8 15 9 15 10.5C15 12 14 13 13 13.5C12 14 11 14 10 13.5" stroke="currentColor" stroke-width="1.2" stroke-linecap="round" fill="none"/>
</svg>
