<svg width="16" height="16" viewBox="0 0 16 16" fill="none" xmlns="http://www.w3.org/2000/svg">
  <path d="M8 2C8 2 6 2 5 3C4 4 4 5 4 5C3 5 2 6 2 7.5C2 9 3 10 4 10C4 11 4.5 12 5.5 12.5C6.5 13 7.5 13 8 13" stroke="currentColor" stroke-width="1.5" stroke-linecap="round" fill="none"/>
  <path d="M8 2C8 2 10 2 11 3C12 4 12 5 12 5C13 5 14 6 14 7.5C14 9 13 10 12 10C12 11 11.5 12 10.5 12.5C9.5 13 8.5 13 8 13" stroke="currentColor" stroke-width="1.5" stroke-linecap="round" fill="none"/>
  <line x1="8" y1="2" x2="8" y2="13" stroke="currentColor" stroke-width="1.5" stroke-linecap="round"/>
  <path d="M5 6.5C5.5 6.5 6 7 6 7.5" stroke="currentColor" stroke-width="1" stroke-linecap="round"/>
  <path d="M11 6.5C10.5 6.5 10 7 10 7.5" stroke="currentColor" stroke-width="1" stroke-linecap="round"/>
</svg>
