<svg preserveAspectRatio="none" width="100%" height="100%" overflow="visible" style="display: block;" viewBox="0 0 126 138" fill="none" xmlns="http://www.w3.org/2000/svg">
<g id="Group 20">
<path id="Polygon 3" d="M55.9466 5.12461C60.1524 2.06888 65.8476 2.06888 70.0534 5.12461L115.863 38.4073C120.069 41.463 121.829 46.8795 120.222 51.8237L102.725 105.676C101.118 110.621 96.5107 113.968 91.312 113.968H34.688C29.4893 113.968 24.8819 110.621 23.2754 105.676L5.7776 51.8237C4.17111 46.8794 5.93101 41.463 10.1369 38.4073L55.9466 5.12461Z" fill="var(--fill-0, #D1F8F9)"/>
<ellipse id="Ellipse 46" cx="62.5" cy="132" rx="54.5" ry="6" fill="var(--fill-0, #7DCBCD)"/>
<g id="Subtract">
<mask id="path-3-inside-1_2061_8462" fill="white">
<path d="M59.8655 62.2686C61.6772 62.2686 63.3294 63.4917 63.3664 65.303C63.3682 65.3909 63.3691 65.479 63.3691 65.5674C63.3689 72.6096 57.6595 78.3184 50.6172 78.3184C43.575 78.3183 37.8665 72.6096 37.8662 65.5674C37.8662 65.479 37.8671 65.3909 37.8689 65.3029C37.906 63.4916 39.5581 62.2686 41.3698 62.2686H59.8655Z"/>
</mask>
<path d="M63.3691 65.5674L67.3691 65.5675V65.5674H63.3691ZM50.6172 78.3184L50.6171 82.3184H50.6172V78.3184ZM37.8662 65.5674L33.8662 65.5674L33.8662 65.5675L37.8662 65.5674ZM63.3664 65.303L59.3673 65.3848L63.3664 65.303ZM63.3664 65.303L59.3673 65.3848C59.3685 65.4454 59.3691 65.5063 59.3691 65.5674H63.3691H67.3691C67.3691 65.4517 67.368 65.3363 67.3656 65.2212L63.3664 65.303ZM63.3691 65.5674L59.3691 65.5672C59.369 70.4002 55.4506 74.3184 50.6172 74.3184V78.3184V82.3184C59.8684 82.3184 67.3688 74.8191 67.3691 65.5675L63.3691 65.5674ZM50.6172 78.3184L50.6172 74.3184C45.7842 74.3183 41.8664 70.4005 41.8662 65.5672L37.8662 65.5674L33.8662 65.5675C33.8665 74.8187 41.3657 82.3182 50.6171 82.3184L50.6172 78.3184ZM37.8662 65.5674H41.8662C41.8662 65.5063 41.8668 65.4454 41.8681 65.3847L37.8689 65.3029L33.8697 65.2211C33.8674 65.3363 33.8662 65.4517 33.8662 65.5674H37.8662ZM41.3698 62.2686V66.2686H59.8655V62.2686V58.2686H41.3698V62.2686ZM37.8689 65.3029L41.8681 65.3847C41.8648 65.544 41.8225 65.7206 41.74 65.8822C41.6612 66.0367 41.5679 66.1354 41.5016 66.1902C41.3861 66.2856 41.3369 66.2686 41.3698 66.2686V62.2686V58.2686C38.0396 58.2686 33.9637 60.6291 33.8697 65.2211L37.8689 65.3029ZM63.3664 65.303L67.3656 65.2212C67.2717 60.6291 63.1958 58.2686 59.8655 58.2686V62.2686V66.2686C59.8984 66.2686 59.8492 66.2856 59.7337 66.1902C59.6675 66.1355 59.5741 66.0367 59.4953 65.8822C59.4129 65.7206 59.3705 65.5441 59.3673 65.3848L63.3664 65.303Z" fill="var(--stroke-0, #38A3A5)" mask="url(#path-3-inside-1_2061_8462)"/>
</g>
<path id="Vector 47" d="M40 47V53" stroke="var(--stroke-0, #38A3A5)" stroke-width="4" stroke-linecap="round"/>
<path id="Vector 48" d="M60 47V53" stroke="var(--stroke-0, #38A3A5)" stroke-width="4" stroke-linecap="round"/>
</g>
</svg>
