<svg preserveAspectRatio="none" width="100%" height="100%" overflow="visible" style="display: block;" viewBox="0 0 78 83" fill="none" xmlns="http://www.w3.org/2000/svg">
<g id="Group 20">
<path id="Polygon 3" d="M31.4819 5.12461C35.6877 2.06888 41.3829 2.06888 45.5887 5.12461L68.1311 21.5026C72.3369 24.5583 74.0968 29.9747 72.4903 34.919L63.8799 61.4191C62.2734 66.3634 57.6659 69.7109 52.4672 69.7109H24.6033C19.4046 69.7109 14.7971 66.3634 13.1907 61.4191L4.58024 34.919C2.97375 29.9747 4.73364 24.5583 8.93949 21.5026L31.4819 5.12461Z" fill="var(--fill-0, #99E0E2)"/>
<ellipse id="Ellipse 46" cx="38.2296" cy="79.2235" rx="33.3361" ry="3.67003" fill="var(--fill-0, #37A3C1)"/>
<g id="Subtract">
<mask id="path-3-inside-1_2061_8498" fill="white">
<path d="M36.4545 38.0879C37.658 38.0879 38.7609 38.902 38.7609 40.1055C38.7609 44.4132 35.2687 47.9053 30.9611 47.9053C26.6534 47.9053 23.1613 44.4132 23.1613 40.1055C23.1613 38.902 24.2641 38.0879 25.4677 38.0879H36.4545Z"/>
</mask>
<path d="M38.7609 40.1055L40.7609 40.1055V40.1055H38.7609ZM30.9611 47.9053L30.9611 49.9053L30.9611 49.9053L30.9611 47.9053ZM23.1613 40.1055L21.1613 40.1055L21.1613 40.1055L23.1613 40.1055ZM38.7609 40.1055L36.7609 40.1055C36.7609 43.3086 34.1642 45.9053 30.9611 45.9053L30.9611 47.9053L30.9611 49.9053C36.3733 49.9053 40.7609 45.5177 40.7609 40.1055L38.7609 40.1055ZM30.9611 47.9053V45.9053C27.758 45.9053 25.1613 43.3086 25.1613 40.1055L23.1613 40.1055L21.1613 40.1055C21.1613 45.5177 25.5488 49.9053 30.9611 49.9053V47.9053ZM25.4677 38.0879V40.0879H36.4545V38.0879V36.0879H25.4677V38.0879ZM23.1613 40.1055H25.1613C25.1613 40.1176 25.1568 40.1457 25.143 40.1735C25.1311 40.1974 25.1239 40.1982 25.141 40.1839C25.1592 40.1688 25.1973 40.1436 25.2584 40.1223C25.319 40.1012 25.3908 40.0879 25.4677 40.0879V38.0879V36.0879C23.5232 36.0879 21.1613 37.4659 21.1613 40.1055H23.1613ZM38.7609 40.1055H40.7609C40.7609 37.4659 38.399 36.0879 36.4545 36.0879V38.0879V40.0879C36.5314 40.0879 36.6032 40.1012 36.6638 40.1223C36.7249 40.1436 36.763 40.1688 36.7812 40.1839C36.7983 40.1982 36.7911 40.1974 36.7792 40.1735C36.7653 40.1457 36.7609 40.1176 36.7609 40.1055H38.7609Z" fill="var(--stroke-0, #0159B5)" mask="url(#path-3-inside-1_2061_8498)"/>
</g>
<path id="Vector 47" d="M24.4669 28.7486V32.4186" stroke="var(--stroke-0, #0159B5)" stroke-width="2" stroke-linecap="round"/>
<path id="Vector 48" d="M36.7001 28.7486V32.4186" stroke="var(--stroke-0, #0159B5)" stroke-width="2" stroke-linecap="round"/>
</g>
</svg>
