<svg preserveAspectRatio="none" width="100%" height="100%" overflow="visible" style="display: block;" viewBox="0 0 144 158" fill="none" xmlns="http://www.w3.org/2000/svg">
<g id="Group 20">
<path id="Polygon 3" d="M64.9466 5.12465C69.1524 2.06892 74.8476 2.06892 79.0534 5.12465L133.423 44.6262C137.629 47.6819 139.388 53.0983 137.782 58.0426L117.015 121.957C115.408 126.902 110.801 130.249 105.602 130.249H38.398C33.1993 130.249 28.5918 126.902 26.9853 121.957L6.2181 58.0426C4.61161 53.0983 6.37151 47.6819 10.5774 44.6262L64.9466 5.12465Z" fill="var(--fill-0, #99E0E2)"/>
<ellipse id="Ellipse 46" cx="71.4286" cy="150.857" rx="62.2857" ry="6.85714" fill="var(--fill-0, #37A3C1)"/>
<g id="Subtract">
<mask id="path-3-inside-1_2061_8429" fill="white">
<path d="M68.856 71.1641C70.6677 71.1641 72.3117 72.384 72.4026 74.1934C72.4149 74.4386 72.4212 74.6854 72.4212 74.9336C72.4212 82.9822 65.8965 89.5069 57.8479 89.5069C49.7995 89.5068 43.2747 82.9821 43.2747 74.9336C43.2747 74.6854 43.2809 74.4386 43.2933 74.1934C43.3842 72.3841 45.0282 71.1641 46.8398 71.1641H68.856Z"/>
</mask>
<path d="M72.4212 74.9336L75.4212 74.9336L75.4212 74.9336L72.4212 74.9336ZM57.8479 89.5069L57.8479 92.5069H57.8479V89.5069ZM43.2747 74.9336L40.2747 74.9336V74.9336H43.2747ZM72.4026 74.1934L75.3988 74.0429L72.4026 74.1934ZM72.4026 74.1934L69.4064 74.344C69.4162 74.5391 69.4212 74.7357 69.4212 74.9337L72.4212 74.9336L75.4212 74.9336C75.4212 74.6351 75.4137 74.3381 75.3988 74.0429L72.4026 74.1934ZM72.4212 74.9336H69.4212C69.4212 81.3253 64.2396 86.5069 57.8479 86.5069V89.5069V92.5069C67.5533 92.5069 75.4212 84.639 75.4212 74.9336H72.4212ZM57.8479 89.5069L57.848 86.5069C51.4563 86.5068 46.2747 81.3252 46.2747 74.9336H43.2747H40.2747C40.2747 84.639 48.1426 92.5068 57.8479 92.5069L57.8479 89.5069ZM43.2747 74.9336L46.2747 74.9337C46.2747 74.7357 46.2797 74.5391 46.2895 74.344L43.2933 74.1934L40.297 74.0429C40.2822 74.3381 40.2747 74.6351 40.2747 74.9336L43.2747 74.9336ZM46.8398 71.1641V74.1641H68.856V71.1641V68.1641H46.8398V71.1641ZM43.2933 74.1934L46.2895 74.344C46.2899 74.3362 46.2892 74.3476 46.2825 74.3602C46.2781 74.3684 46.2844 74.3521 46.3216 74.3216C46.407 74.2517 46.5906 74.1641 46.8398 74.1641V71.1641V68.1641C43.8555 68.1641 40.4879 70.244 40.297 74.0429L43.2933 74.1934ZM72.4026 74.1934L75.3988 74.0429C75.208 70.244 71.8404 68.1641 68.856 68.1641V71.1641V74.1641C69.1053 74.1641 69.2889 74.2517 69.3742 74.3216C69.4115 74.3521 69.4177 74.3684 69.4134 74.3602C69.4067 74.3476 69.406 74.3362 69.4064 74.344L72.4026 74.1934Z" fill="var(--stroke-0, #0159B5)" mask="url(#path-3-inside-1_2061_8429)"/>
</g>
<path id="Vector 47" d="M45.7143 53.7143V60.5715" stroke="var(--stroke-0, #0159B5)" stroke-width="3" stroke-linecap="round"/>
<path id="Vector 48" d="M68.5714 53.7143V60.5715" stroke="var(--stroke-0, #0159B5)" stroke-width="3" stroke-linecap="round"/>
</g>
</svg>
